<?xml version="1.0" encoding="UTF-8" standalone="no"?>
<!DOCTYPE svg PUBLIC "-//W3C//DTD SVG 1.1//EN" "http://www.w3.org/Graphics/SVG/1.1/DTD/svg11.dtd">
<svg xmlns="http://www.w3.org/2000/svg" version="1.1" viewBox="0.00 0.00 645.00 417.00">
<path fill="#ffffff" d="
  M 123.02 179.32
  Q 122.98 179.46 122.91 179.58
  Q 122.63 180.11 122.29 179.61
  Q 121.70 178.75 120.67 178.51
  Q 120.07 178.37 120.07 177.75
  C 120.07 176.56 119.41 175.93 119.42 174.75
  Q 119.54 164.18 119.37 153.33
  C 119.36 152.44 119.67 151.65 119.68 150.69
  Q 120.04 119.78 119.03 109.64
  Q 118.17 100.97 109.31 99.60
  Q 105.54 99.02 96.87 99.68
  Q 93.55 99.93 91.54 101.40
  C 88.45 103.67 87.01 105.83 86.89 109.68
  Q 86.73 114.65 86.80 119.25
  Q 86.82 120.00 86.81 120.75
  Q 86.70 167.02 86.75 215.18
  Q 86.75 215.61 86.41 215.87
  Q 86.27 215.97 86.20 216.11
  A 1.49 1.25 59.4 0 0 86.05 217.02
  C 86.30 218.65 84.92 220.02 83.30 220.02
  Q 67.68 220.00 52.37 219.99
  C 49.74 219.99 49.48 217.59 49.18 215.59
  Q 48.99 214.34 48.99 213.06
  Q 49.00 143.87 49.02 73.10
  Q 49.02 70.88 49.51 68.79
  Q 50.05 66.46 49.75 64.26
  A 2.30 2.30 0.0 0 1 52.01 61.64
  Q 80.05 61.38 107.63 61.55
  Q 108.19 61.55 108.75 61.55
  Q 141.65 61.52 180.00 61.52
  Q 181.92 61.52 182.79 61.33
  Q 183.33 61.21 183.77 61.55
  Q 184.27 61.96 184.91 61.99
  A 1.89 1.88 -3.7 0 1 186.67 63.53
  C 187.23 66.50 187.58 69.62 187.39 72.66
  Q 187.05 78.26 188.06 85.74
  Q 188.51 89.10 190.65 92.12
  Q 197.34 101.59 209.55 101.64
  Q 217.67 101.67 224.97 102.05
  Q 225.66 102.09 225.78 102.77
  Q 225.93 103.61 226.60 104.14
  A 1.65 1.64 -70.3 0 1 227.21 105.44
  Q 226.66 136.39 227.47 167.31
  Q 227.51 168.68 227.50 169.96
  Q 227.39 191.88 227.37 214.99
  Q 227.37 215.51 227.06 215.94
  Q 226.54 216.67 226.45 217.46
  Q 226.19 219.81 223.65 219.89
  Q 213.76 220.20 204.88 219.86
  Q 201.93 219.75 198.79 219.97
  Q 195.65 220.20 192.79 219.76
  C 189.65 219.27 189.89 216.99 189.89 214.63
  Q 190.00 162.32 189.85 112.40
  Q 189.84 110.10 189.22 108.08
  Q 188.50 105.73 187.75 103.55
  Q 187.61 103.13 187.22 102.93
  C 185.42 101.96 183.96 100.22 181.92 99.81
  Q 178.96 99.21 174.95 99.25
  C 168.63 99.32 160.33 98.80 158.15 106.00
  Q 157.03 109.72 157.01 116.00
  Q 156.93 148.12 156.93 175.36
  Q 156.93 175.67 156.70 175.89
  L 156.47 176.10
  Q 156.18 176.37 156.20 176.76
  Q 156.26 177.87 155.90 178.96
  Q 155.76 179.41 155.30 179.55
  Q 154.04 179.93 153.02 179.93
  Q 139.46 180.01 124.96 179.89
  Q 124.41 179.88 124.04 179.47
  Q 123.92 179.33 123.82 179.18
  Q 123.30 178.40 123.02 179.32
  Z"
/>
<path fill="#ffffff" d="
  M 363.60 69.14
  Q 383.34 78.34 395.31 94.68
  Q 403.40 105.72 407.51 118.79
  Q 410.43 128.09 410.94 138.44
  Q 412.79 176.12 384.79 202.76
  C 380.58 206.76 376.23 209.53 371.39 212.42
  Q 347.64 226.64 319.36 223.81
  Q 312.71 223.14 301.12 219.53
  Q 300.01 219.18 299.03 218.57
  C 298.10 217.98 296.84 217.89 295.85 217.38
  Q 284.07 211.36 278.20 207.00
  Q 262.45 195.26 253.37 175.21
  Q 252.42 173.10 251.79 170.79
  Q 251.19 168.57 250.43 166.27
  Q 247.74 158.24 247.16 149.33
  C 246.33 136.54 247.67 123.88 252.72 112.14
  Q 257.58 100.82 265.94 90.38
  Q 268.90 86.68 272.66 83.54
  Q 277.79 79.24 280.26 77.45
  Q 298.96 63.91 322.13 61.85
  Q 326.32 61.48 334.31 61.79
  Q 340.88 62.05 346.34 63.21
  Q 354.59 64.95 363.60 69.14
  Z
  M 313.39 180.61
  C 316.59 182.12 320.31 182.54 323.74 183.40
  C 330.50 185.10 338.65 182.90 345.27 180.42
  Q 350.97 178.28 355.88 173.95
  Q 370.83 160.75 369.92 140.81
  C 368.93 118.96 351.29 101.87 329.18 101.81
  Q 314.39 101.77 302.51 111.54
  C 299.74 113.82 296.99 116.13 295.14 119.23
  C 292.41 123.79 289.90 128.32 288.85 133.67
  Q 287.50 140.55 288.11 148.22
  C 288.47 152.72 290.32 157.88 292.52 161.73
  Q 299.62 174.14 313.39 180.61
  Z"
/>
<path fill="#ffffff" d="
  M 443.71 186.07
  Q 442.66 186.29 442.08 185.37
  C 435.84 175.42 431.00 164.33 429.77 153.37
  C 428.62 143.18 428.58 132.65 430.62 124.22
  C 432.75 115.38 436.50 106.01 441.50 98.56
  Q 460.23 70.67 494.29 63.53
  Q 497.39 62.88 503.99 62.54
  Q 508.57 62.30 513.84 62.29
  Q 545.76 62.21 580.78 62.25
  Q 581.31 62.25 581.76 62.54
  C 583.22 63.48 584.09 62.41 585.41 62.96
  Q 587.53 63.83 586.65 66.42
  C 586.03 68.22 586.92 69.32 587.01 71.04
  Q 587.37 77.71 587.42 84.52
  C 587.46 88.81 586.78 93.03 587.04 97.29
  A 2.58 2.57 1.5 0 1 584.18 100.00
  Q 582.71 99.83 581.30 100.28
  A 1.39 1.37 -41.0 0 1 580.31 100.22
  Q 579.46 99.83 578.55 100.09
  Q 576.22 100.76 574.10 100.61
  Q 572.99 100.54 571.86 100.53
  Q 542.69 100.42 513.76 100.41
  Q 509.83 100.41 506.25 100.67
  Q 502.48 100.94 498.76 101.09
  A 10.86 10.69 30.8 0 0 494.60 102.11
  C 491.21 103.71 487.41 104.94 484.54 107.25
  C 475.89 114.21 469.94 121.60 467.80 132.54
  Q 463.36 155.26 479.19 171.37
  Q 479.41 171.58 479.50 171.87
  Q 479.55 172.00 479.51 172.14
  Q 479.42 172.53 479.79 172.63
  Q 480.76 172.91 481.53 173.56
  Q 487.66 178.72 495.15 179.19
  C 504.56 179.78 509.38 173.17 509.45 164.54
  Q 509.47 162.04 509.26 159.58
  Q 508.58 151.49 510.14 143.51
  Q 510.24 142.98 510.78 142.98
  C 513.07 142.95 515.00 142.73 517.41 142.88
  Q 521.45 143.13 525.87 142.82
  Q 533.99 142.26 568.37 142.45
  Q 572.49 142.47 576.64 142.81
  Q 580.57 143.14 584.48 142.97
  A 2.32 2.32 0.0 0 1 586.91 145.27
  Q 587.09 177.21 586.95 216.55
  Q 586.93 221.03 582.58 221.03
  Q 569.00 221.02 555.43 220.98
  Q 552.90 220.98 550.59 220.01
  Q 550.18 219.84 550.14 219.40
  Q 549.29 209.69 549.56 202.40
  Q 549.73 197.79 549.40 193.77
  Q 549.36 193.37 549.52 193.01
  Q 549.66 192.69 549.55 192.37
  C 548.74 190.10 549.44 187.88 548.13 185.76
  C 546.34 182.87 543.16 180.95 539.56 180.99
  Q 530.42 181.09 521.65 180.83
  C 516.63 180.68 510.37 181.85 508.22 186.76
  Q 506.93 189.72 506.80 193.92
  Q 506.44 205.65 506.50 216.82
  Q 506.53 221.72 501.61 220.95
  Q 497.51 220.31 493.56 219.24
  C 492.15 218.86 490.35 219.03 489.23 218.73
  Q 461.26 211.38 444.11 188.25
  Q 443.72 187.72 443.69 187.18
  Q 443.67 186.77 443.94 186.42
  Q 444.29 185.94 443.71 186.07
  Z
  M 452.20 193.99
  Q 452.38 194.55 452.82 194.94
  Q 453.31 195.38 453.54 194.76
  Q 453.77 194.14 453.18 193.84
  Q 452.78 193.63 452.34 193.74
  Q 452.14 193.79 452.20 193.99
  Z"
/>
<path fill="#ffffff" d="
  M 100.15 337.32
  C 106.68 341.92 106.68 350.18 101.93 356.02
  Q 99.44 359.08 95.22 361.43
  Q 92.06 363.19 87.57 363.34
  Q 79.28 363.61 72.02 358.82
  C 70.81 358.02 69.89 356.93 68.85 355.95
  A 2.25 2.24 45.4 0 1 68.87 352.66
  Q 71.79 349.99 75.56 348.21
  A 0.99 0.97 -36.9 0 1 76.60 348.35
  C 78.45 349.90 80.41 351.95 82.68 352.75
  Q 85.61 353.78 89.12 353.02
  Q 90.82 352.66 91.75 351.00
  C 94.45 346.23 90.85 343.51 86.87 342.08
  C 80.69 339.84 75.08 338.45 71.05 332.96
  Q 68.91 330.04 68.81 327.01
  C 68.66 322.67 70.03 317.99 73.67 315.16
  Q 79.98 310.25 87.36 310.67
  Q 90.31 310.84 92.77 311.25
  C 95.95 311.79 98.31 313.93 101.20 315.28
  C 102.82 316.04 103.34 317.34 103.57 318.97
  Q 103.65 319.51 103.28 319.91
  Q 100.50 322.87 97.10 324.55
  A 2.24 2.22 -37.5 0 1 94.66 324.24
  Q 92.81 322.64 90.70 321.30
  C 85.12 317.75 76.78 324.62 83.32 328.18
  Q 88.41 330.95 93.86 333.26
  C 94.61 333.57 94.79 334.17 95.48 334.51
  Q 97.76 335.64 100.15 337.32
  Z"
/>
<path fill="#ffffff" d="
  M 498.67 336.87
  A 26.12 26.12 0.0 0 1 472.55 362.99
  A 26.12 26.12 0.0 0 1 446.43 336.87
  A 26.12 26.12 0.0 0 1 472.55 310.75
  A 26.12 26.12 0.0 0 1 498.67 336.87
  Z
  M 485.87 336.85
  A 13.43 13.43 0.0 0 0 472.44 323.42
  A 13.43 13.43 0.0 0 0 459.01 336.85
  A 13.43 13.43 0.0 0 0 472.44 350.28
  A 13.43 13.43 0.0 0 0 485.87 336.85
  Z"
/>
<path fill="#ffffff" d="
  M 569.93 350.41
  Q 570.60 350.61 570.71 351.28
  Q 570.79 351.77 570.54 352.23
  Q 564.90 362.64 553.61 363.20
  Q 542.81 363.74 535.26 356.22
  C 532.63 353.60 537.73 350.72 539.65 349.47
  Q 542.46 347.65 544.88 350.05
  Q 546.85 352.01 549.25 353.07
  C 556.25 356.16 564.42 346.81 554.17 342.81
  Q 549.03 340.81 543.61 338.27
  Q 537.94 335.60 535.63 329.05
  Q 533.98 324.37 535.92 320.35
  C 539.68 312.59 547.74 310.13 555.97 310.77
  C 560.51 311.13 565.69 313.35 568.70 316.98
  A 2.68 2.67 52.4 0 1 568.20 320.87
  L 564.63 323.42
  A 1.38 1.36 -62.6 0 1 563.83 323.68
  C 562.24 323.66 560.68 323.81 559.30 322.84
  Q 555.92 320.45 551.77 319.77
  Q 551.27 319.69 550.86 319.98
  C 548.91 321.36 546.49 322.67 546.94 325.48
  C 547.17 326.89 548.19 327.27 549.17 328.09
  Q 549.75 328.58 550.44 328.88
  Q 556.80 331.64 562.44 334.40
  Q 564.21 335.26 565.87 336.66
  Q 568.12 338.56 568.64 339.90
  Q 569.53 342.20 570.59 344.60
  Q 571.88 347.49 569.78 349.88
  Q 569.44 350.26 569.93 350.41
  Z"
/>
<path fill="#ffffff" d="
  M 170.87 325.71
  C 170.56 327.46 170.01 329.15 170.52 330.92
  C 171.56 334.49 170.73 338.61 170.79 342.34
  Q 170.89 349.32 170.95 356.00
  Q 170.96 356.53 170.71 357.01
  C 170.29 357.82 170.66 358.52 170.36 359.36
  Q 169.20 362.49 166.00 361.21
  Q 165.56 361.04 165.23 361.37
  L 164.96 361.63
  A 1.04 1.03 30.4 0 1 163.94 361.89
  Q 162.08 361.35 160.28 361.78
  Q 159.74 361.91 159.30 361.56
  Q 157.08 359.83 157.09 357.85
  Q 157.14 346.51 157.06 335.24
  C 157.03 331.76 157.49 328.49 156.91 324.86
  Q 156.80 324.19 156.14 324.04
  C 154.70 323.72 153.77 322.93 152.24 322.96
  Q 147.42 323.05 142.73 322.98
  Q 142.13 322.98 142.14 322.38
  L 142.16 314.55
  A 2.55 2.54 -89.9 0 1 144.70 312.01
  L 184.17 312.05
  A 1.21 1.21 0.0 0 1 185.30 313.71
  Q 184.98 314.53 185.63 315.04
  A 1.09 1.07 -68.1 0 1 186.04 316.02
  L 185.36 322.33
  Q 185.29 323.01 184.60 323.02
  L 173.98 323.09
  Q 171.33 323.11 170.87 325.71
  Z"
/>
<path fill="#ffffff" d="
  M 265.95 351.04
  C 265.15 353.39 263.47 356.18 261.41 357.67
  C 258.50 359.80 255.08 362.85 251.33 363.11
  Q 245.41 363.51 239.80 362.83
  C 236.87 362.48 234.39 360.84 232.03 359.22
  Q 227.84 356.33 226.03 352.21
  Q 224.06 347.74 224.00 340.43
  Q 223.91 328.50 224.04 316.56
  C 224.05 315.60 224.49 314.77 224.35 313.89
  Q 224.27 313.37 224.66 313.02
  C 226.10 311.68 226.97 312.13 228.65 312.05
  Q 231.77 311.89 235.20 312.44
  A 2.13 2.12 -85.7 0 1 236.99 314.53
  Q 237.04 328.71 236.97 343.19
  C 236.95 347.43 239.95 350.94 244.00 351.42
  Q 251.67 352.31 253.91 346.68
  Q 255.18 343.50 255.08 337.66
  Q 254.87 325.07 255.05 313.98
  Q 255.06 313.16 255.85 312.92
  C 259.22 311.87 263.58 311.44 266.89 312.82
  Q 267.47 313.06 267.52 313.68
  C 267.62 314.82 268.01 315.59 268.01 316.81
  Q 267.98 327.89 267.85 338.50
  Q 267.76 345.70 265.95 351.04
  Z"
/>
<path fill="#ffffff" d="
  M 308.28 359.09
  L 307.91 358.76
  A 0.39 0.37 -69.9 0 1 307.79 358.48
  C 307.73 355.24 308.03 352.11 307.96 348.91
  Q 307.65 333.46 308.03 317.07
  C 308.07 315.48 309.03 314.69 308.92 313.16
  Q 308.85 312.25 309.76 312.27
  Q 314.16 312.40 317.10 312.17
  Q 326.09 311.46 334.83 313.04
  C 337.09 313.44 340.04 314.67 341.95 315.86
  Q 355.95 324.61 353.06 342.25
  C 351.33 352.81 343.18 359.17 332.97 360.71
  Q 328.01 361.46 323.37 361.73
  Q 317.63 362.07 310.36 361.84
  A 2.50 2.49 -27.7 0 1 309.09 361.45
  Q 307.48 360.42 308.21 359.96
  A 0.55 0.55 0.0 0 0 308.28 359.09
  Z
  M 324.75 350.75
  Q 325.61 351.60 326.82 350.99
  Q 327.40 350.70 328.05 350.65
  Q 335.02 350.15 338.14 345.13
  Q 342.27 338.49 338.74 329.73
  Q 337.32 326.19 333.32 324.60
  Q 327.64 322.35 322.83 323.16
  Q 321.48 323.39 321.00 324.61
  Q 320.14 326.78 320.48 328.94
  Q 320.76 330.77 320.76 332.77
  Q 320.75 340.26 320.72 347.76
  Q 320.71 349.26 323.25 350.88
  Q 323.60 351.11 323.94 350.88
  L 324.20 350.70
  Q 324.50 350.50 324.75 350.75
  Z"
/>
<path fill="#ffffff" d="
  M 395.19 313.35
  Q 395.29 313.06 395.29 312.77
  Q 395.29 312.02 396.04 312.12
  Q 399.66 312.56 403.52 312.07
  Q 404.02 312.01 404.46 312.25
  Q 407.03 313.71 407.02 317.34
  Q 406.97 339.24 407.00 360.84
  A 0.08 0.07 85.9 0 1 406.94 360.92
  Q 399.39 362.97 394.44 360.82
  Q 394.02 360.64 394.01 360.17
  Q 393.90 350.88 393.85 340.92
  C 393.82 333.65 393.40 323.86 393.75 315.27
  Q 393.77 314.64 394.44 314.25
  Q 394.98 313.94 395.19 313.35
  Z"
/>
</svg>
