<?xml version="1.0" encoding="UTF-8" standalone="no"?>
<!DOCTYPE svg PUBLIC "-//W3C//DTD SVG 1.1//EN" "http://www.w3.org/Graphics/SVG/1.1/DTD/svg11.dtd">
<svg xmlns="http://www.w3.org/2000/svg" version="1.1" viewBox="0.00 0.00 645.00 417.00">
<g stroke-width="2.00" fill="none" stroke-linecap="butt">
<path stroke="#f8999f" vector-effect="non-scaling-stroke" d="
  M 188.16 110.77
  Q 188.06 123.84 188.22 139.36
  Q 188.62 176.63 188.34 215.10
  Q 188.33 217.16 188.86 219.18
  A 2.36 2.36 0.0 0 0 191.06 220.93
  Q 207.37 221.50 223.01 221.18
  Q 225.01 221.14 227.06 220.74
  A 1.41 1.40 -2.5 0 0 228.19 219.51
  C 228.41 217.57 228.83 215.41 228.82 213.45
  Q 228.57 159.54 228.62 107.47
  Q 228.62 104.96 228.20 102.68
  A 2.06 2.05 -88.2 0 0 226.68 101.06
  Q 224.72 100.57 222.79 100.57
  Q 215.60 100.56 209.12 100.42
  Q 195.73 100.13 190.24 88.32
  Q 188.72 85.06 188.60 81.13
  Q 188.38 74.34 188.42 67.15
  Q 188.43 64.48 187.87 61.99
  Q 187.76 61.49 187.30 61.27
  Q 185.29 60.27 182.89 60.27
  Q 119.06 60.30 54.30 60.23
  C 51.92 60.23 48.21 60.36 48.04 63.50
  Q 47.83 67.24 47.82 70.69
  Q 47.69 146.75 47.80 217.04
  Q 47.81 220.86 51.49 220.97
  Q 67.62 221.46 83.75 221.15
  Q 85.83 221.11 87.07 220.14
  A 1.38 1.37 76.7 0 0 87.56 219.34
  Q 88.02 217.08 88.02 214.96
  Q 87.87 162.99 88.12 116.06
  Q 88.14 112.45 88.41 108.49
  C 89.05 98.93 103.19 100.13 109.24 100.77
  C 116.54 101.55 118.01 107.79 118.03 114.00
  Q 118.09 144.00 118.08 176.50
  Q 118.08 180.66 122.24 180.78
  Q 137.21 181.17 152.10 180.88
  Q 155.33 180.82 155.93 180.61
  C 158.73 179.63 158.34 175.48 158.33 173.00
  Q 158.19 142.28 158.45 111.50
  C 158.52 102.89 163.62 100.69 171.17 100.46
  Q 177.25 100.28 179.98 100.85
  Q 188.22 102.58 188.16 110.77"
/>
<path stroke="#f8999f" vector-effect="non-scaling-stroke" d="
  M 360.37 66.54
  C 340.36 58.36 316.55 58.24 296.35 67.08
  Q 285.67 71.76 278.43 77.09
  C 261.05 89.89 249.27 109.88 246.44 131.62
  Q 242.51 161.87 258.61 187.27
  Q 268.10 202.23 282.22 211.10
  C 295.14 219.23 308.28 224.18 323.72 225.17
  Q 338.57 226.12 351.97 222.14
  C 364.15 218.52 377.66 211.33 386.98 202.21
  C 412.79 176.93 419.69 139.11 404.00 106.84
  Q 390.37 78.80 360.37 66.54"
/>
<path stroke="#f8999f" vector-effect="non-scaling-stroke" d="
  M 550.99 221.93
  C 562.36 222.31 573.89 222.20 585.04 221.95
  Q 586.33 221.92 587.32 221.29
  A 1.22 1.21 79.0 0 0 587.88 220.45
  Q 588.39 217.21 588.40 213.11
  Q 588.48 179.82 588.39 149.31
  Q 588.38 146.61 588.01 143.84
  A 2.10 2.09 -0.7 0 0 586.16 142.04
  Q 582.66 141.65 579.11 141.65
  Q 544.45 141.67 513.87 141.76
  Q 511.91 141.77 509.87 142.04
  Q 509.37 142.11 509.10 142.54
  Q 507.99 144.32 507.99 146.92
  Q 507.98 155.45 508.03 164.61
  C 508.06 169.86 506.81 174.14 501.91 176.82
  C 496.46 179.80 488.38 177.26 483.66 173.57
  Q 471.72 164.21 468.62 149.13
  C 464.84 130.68 475.46 110.78 493.38 104.09
  Q 500.22 101.53 507.89 101.52
  Q 541.00 101.45 581.37 101.50
  C 583.54 101.50 588.16 101.53 588.23 98.50
  Q 588.63 81.45 588.18 64.58
  Q 588.15 63.41 587.36 62.40
  A 1.56 1.53 77.7 0 0 586.55 61.87
  Q 584.10 61.23 581.34 61.24
  Q 542.62 61.25 507.84 61.28
  C 483.19 61.30 460.12 72.95 444.74 92.15
  C 427.14 114.14 422.70 145.08 433.33 171.28
  C 444.71 199.33 470.76 219.05 500.98 221.71
  Q 503.62 221.94 506.09 221.50
  A 1.81 1.81 0.0 0 0 507.54 220.11
  Q 507.96 218.18 507.98 216.41
  Q 508.08 205.71 508.00 194.08
  C 507.96 187.53 510.64 182.36 518.09 182.12
  Q 528.45 181.79 539.10 182.15
  Q 547.96 182.44 547.97 191.43
  Q 547.97 204.06 548.33 217.55
  Q 548.36 218.98 548.87 220.39
  A 2.34 2.33 80.9 0 0 550.99 221.93"
/>
<path stroke="#f8999f" vector-effect="non-scaling-stroke" d="
  M 91.02 346.50
  C 92.14 348.50 90.66 351.49 88.50 352.08
  C 83.91 353.33 80.22 350.00 77.01 347.08
  A 1.98 1.98 0.0 0 0 74.54 346.92
  Q 71.08 349.34 67.67 351.71
  Q 66.81 352.30 66.26 353.17
  Q 65.64 354.15 66.34 355.08
  C 72.44 363.09 82.68 365.76 92.37 363.55
  C 98.42 362.16 103.60 358.16 105.55 352.16
  C 110.31 337.52 96.25 332.13 85.39 328.24
  C 81.14 326.72 81.58 322.23 85.77 321.26
  C 89.19 320.46 92.80 324.20 95.14 326.21
  A 1.56 1.55 -42.7 0 0 97.09 326.28
  L 105.44 320.05
  A 1.36 1.35 54.6 0 0 105.75 318.21
  C 96.63 304.68 66.65 306.27 67.73 326.76
  C 68.05 332.93 71.88 337.21 77.17 339.70
  Q 82.28 342.10 87.61 343.86
  Q 89.98 344.64 91.02 346.50"
/>
<path stroke="#f8999f" vector-effect="non-scaling-stroke" d="
  M 499.94 336.83
  A 27.43 27.43 0.0 0 0 472.51 309.40
  A 27.43 27.43 0.0 0 0 445.08 336.83
  A 27.43 27.43 0.0 0 0 472.51 364.26
  A 27.43 27.43 0.0 0 0 499.94 336.83"
/>
<path stroke="#f8999f" vector-effect="non-scaling-stroke" d="
  M 549.71 322.29
  C 553.57 318.98 558.26 323.64 561.30 326.13
  A 1.73 1.73 0.0 0 0 563.44 326.18
  L 571.29 320.27
  A 1.91 1.91 0.0 0 0 571.57 317.48
  C 564.60 309.62 553.88 307.53 544.19 311.06
  C 533.96 314.80 530.37 327.19 537.45 335.33
  C 541.01 339.41 547.99 341.82 553.18 343.60
  C 555.22 344.31 558.04 345.70 557.70 348.28
  Q 557.17 352.45 552.53 352.48
  C 548.72 352.51 545.64 349.42 542.99 346.94
  A 1.59 1.58 -41.2 0 0 541.00 346.81
  L 532.88 352.57
  A 1.87 1.87 0.0 0 0 532.57 355.34
  Q 543.58 367.55 559.84 363.14
  C 569.99 360.40 575.73 349.46 570.78 339.89
  C 567.65 333.83 557.16 330.36 551.18 328.05
  C 548.75 327.12 547.54 324.15 549.71 322.29"
/>
<path stroke="#f8999f" vector-effect="non-scaling-stroke" d="
  M 155.34 324.66
  A 1.67 1.64 11.6 0 1 156.36 326.18
  L 156.43 361.46
  A 1.29 1.29 0.0 0 0 157.71 362.75
  L 170.27 362.82
  A 1.22 1.22 0.0 0 0 171.49 361.61
  Q 171.73 344.71 171.55 325.96
  A 1.42 1.42 0.0 0 1 172.94 324.53
  L 186.02 324.26
  A 1.02 1.02 0.0 0 0 187.02 323.24
  L 187.02 312.27
  A 0.99 0.98 7.7 0 0 186.29 311.32
  Q 184.82 310.92 183.33 310.92
  Q 163.91 310.91 142.54 310.96
  A 1.52 1.52 0.0 0 0 141.02 312.47
  L 140.95 322.79
  A 1.44 1.42 2.1 0 0 142.29 324.22
  Q 148.20 324.59 154.39 324.48
  Q 154.90 324.47 155.34 324.66"
/>
<path stroke="#f8999f" vector-effect="non-scaling-stroke" d="
  M 306.78 312.32
  L 306.78 361.38
  A 1.39 1.39 0.0 0 0 308.17 362.77
  L 328.51 362.77
  A 26.27 24.49 0.0 0 0 354.78 338.28
  L 354.78 335.42
  A 26.27 24.49 0.0 0 0 328.51 310.93
  L 308.17 310.93
  A 1.39 1.39 0.0 0 0 306.78 312.32"
/>
<path stroke="#f8999f" vector-effect="non-scaling-stroke" d="
  M 408.1875 312.5564
  A 1.62 1.62 0.0 0 0 406.5647 310.9392
  L 394.1647 310.9609
  A 1.62 1.62 0.0 0 0 392.5476 312.5837
  L 392.6325 361.2236
  A 1.62 1.62 0.0 0 0 394.2553 362.8408
  L 406.6553 362.8191
  A 1.62 1.62 0.0 0 0 408.2724 361.1963
  L 408.1875 312.5564"
/>
<path stroke="#f8999f" vector-effect="non-scaling-stroke" d="
  M 249.20 349.81
  C 240.36 352.24 237.72 346.16 237.77 338.78
  Q 237.87 325.88 237.65 312.21
  A 1.25 1.24 89.5 0 0 236.41 310.98
  L 224.85 310.94
  Q 222.95 310.94 222.90 312.84
  Q 222.57 327.42 222.82 341.74
  C 223.12 359.41 234.22 365.60 250.53 363.94
  C 263.16 362.66 268.92 353.13 269.01 341.25
  Q 269.12 326.66 268.89 312.37
  A 1.42 1.41 89.4 0 0 267.47 310.97
  L 255.28 311.04
  A 0.91 0.90 5.4 0 0 254.39 311.77
  Q 254.08 313.45 254.08 315.50
  Q 254.09 329.26 253.89 341.51
  C 253.84 344.73 252.64 348.87 249.20 349.81"
/>
<path stroke="#f8999f" vector-effect="non-scaling-stroke" d="
  M 368.86 142.76
  A 39.84 39.84 0.0 0 0 329.02 102.92
  A 39.84 39.84 0.0 0 0 289.18 142.76
  A 39.84 39.84 0.0 0 0 329.02 182.60
  A 39.84 39.84 0.0 0 0 368.86 142.76"
/>
<path stroke="#f8999f" vector-effect="non-scaling-stroke" d="
  M 484.58 336.86
  A 12.07 12.07 0.0 0 0 472.51 324.79
  A 12.07 12.07 0.0 0 0 460.44 336.86
  A 12.07 12.07 0.0 0 0 472.51 348.93
  A 12.07 12.07 0.0 0 0 484.58 336.86"
/>
<path stroke="#f8999f" vector-effect="non-scaling-stroke" d="
  M 321.74 325.79
  L 321.66 347.85
  A 1.47 1.47 0.0 0 0 323.13 349.32
  L 327.27 349.34
  A 11.77 10.85 0.2 0 0 339.07 338.53
  L 339.09 335.23
  A 11.77 10.85 0.2 0 0 327.35 324.34
  L 323.21 324.32
  A 1.47 1.47 0.0 0 0 321.74 325.79"
/>
</g>
<path fill="#f0323e" d="
  M 0.00 0.00
  L 645.00 0.00
  L 645.00 417.00
  L 0.00 417.00
  L 0.00 0.00
  Z
  M 188.16 110.77
  Q 188.06 123.84 188.22 139.36
  Q 188.62 176.63 188.34 215.10
  Q 188.33 217.16 188.86 219.18
  A 2.36 2.36 0.0 0 0 191.06 220.93
  Q 207.37 221.50 223.01 221.18
  Q 225.01 221.14 227.06 220.74
  A 1.41 1.40 -2.5 0 0 228.19 219.51
  C 228.41 217.57 228.83 215.41 228.82 213.45
  Q 228.57 159.54 228.62 107.47
  Q 228.62 104.96 228.20 102.68
  A 2.06 2.05 -88.2 0 0 226.68 101.06
  Q 224.72 100.57 222.79 100.57
  Q 215.60 100.56 209.12 100.42
  Q 195.73 100.13 190.24 88.32
  Q 188.72 85.06 188.60 81.13
  Q 188.38 74.34 188.42 67.15
  Q 188.43 64.48 187.87 61.99
  Q 187.76 61.49 187.30 61.27
  Q 185.29 60.27 182.89 60.27
  Q 119.06 60.30 54.30 60.23
  C 51.92 60.23 48.21 60.36 48.04 63.50
  Q 47.83 67.24 47.82 70.69
  Q 47.69 146.75 47.80 217.04
  Q 47.81 220.86 51.49 220.97
  Q 67.62 221.46 83.75 221.15
  Q 85.83 221.11 87.07 220.14
  A 1.38 1.37 76.7 0 0 87.56 219.34
  Q 88.02 217.08 88.02 214.96
  Q 87.87 162.99 88.12 116.06
  Q 88.14 112.45 88.41 108.49
  C 89.05 98.93 103.19 100.13 109.24 100.77
  C 116.54 101.55 118.01 107.79 118.03 114.00
  Q 118.09 144.00 118.08 176.50
  Q 118.08 180.66 122.24 180.78
  Q 137.21 181.17 152.10 180.88
  Q 155.33 180.82 155.93 180.61
  C 158.73 179.63 158.34 175.48 158.33 173.00
  Q 158.19 142.28 158.45 111.50
  C 158.52 102.89 163.62 100.69 171.17 100.46
  Q 177.25 100.28 179.98 100.85
  Q 188.22 102.58 188.16 110.77
  Z
  M 360.37 66.54
  C 340.36 58.36 316.55 58.24 296.35 67.08
  Q 285.67 71.76 278.43 77.09
  C 261.05 89.89 249.27 109.88 246.44 131.62
  Q 242.51 161.87 258.61 187.27
  Q 268.10 202.23 282.22 211.10
  C 295.14 219.23 308.28 224.18 323.72 225.17
  Q 338.57 226.12 351.97 222.14
  C 364.15 218.52 377.66 211.33 386.98 202.21
  C 412.79 176.93 419.69 139.11 404.00 106.84
  Q 390.37 78.80 360.37 66.54
  Z
  M 550.99 221.93
  C 562.36 222.31 573.89 222.20 585.04 221.95
  Q 586.33 221.92 587.32 221.29
  A 1.22 1.21 79.0 0 0 587.88 220.45
  Q 588.39 217.21 588.40 213.11
  Q 588.48 179.82 588.39 149.31
  Q 588.38 146.61 588.01 143.84
  A 2.10 2.09 -0.7 0 0 586.16 142.04
  Q 582.66 141.65 579.11 141.65
  Q 544.45 141.67 513.87 141.76
  Q 511.91 141.77 509.87 142.04
  Q 509.37 142.11 509.10 142.54
  Q 507.99 144.32 507.99 146.92
  Q 507.98 155.45 508.03 164.61
  C 508.06 169.86 506.81 174.14 501.91 176.82
  C 496.46 179.80 488.38 177.26 483.66 173.57
  Q 471.72 164.21 468.62 149.13
  C 464.84 130.68 475.46 110.78 493.38 104.09
  Q 500.22 101.53 507.89 101.52
  Q 541.00 101.45 581.37 101.50
  C 583.54 101.50 588.16 101.53 588.23 98.50
  Q 588.63 81.45 588.18 64.58
  Q 588.15 63.41 587.36 62.40
  A 1.56 1.53 77.7 0 0 586.55 61.87
  Q 584.10 61.23 581.34 61.24
  Q 542.62 61.25 507.84 61.28
  C 483.19 61.30 460.12 72.95 444.74 92.15
  C 427.14 114.14 422.70 145.08 433.33 171.28
  C 444.71 199.33 470.76 219.05 500.98 221.71
  Q 503.62 221.94 506.09 221.50
  A 1.81 1.81 0.0 0 0 507.54 220.11
  Q 507.96 218.18 507.98 216.41
  Q 508.08 205.71 508.00 194.08
  C 507.96 187.53 510.64 182.36 518.09 182.12
  Q 528.45 181.79 539.10 182.15
  Q 547.96 182.44 547.97 191.43
  Q 547.97 204.06 548.33 217.55
  Q 548.36 218.98 548.87 220.39
  A 2.34 2.33 80.9 0 0 550.99 221.93
  Z
  M 91.02 346.50
  C 92.14 348.50 90.66 351.49 88.50 352.08
  C 83.91 353.33 80.22 350.00 77.01 347.08
  A 1.98 1.98 0.0 0 0 74.54 346.92
  Q 71.08 349.34 67.67 351.71
  Q 66.81 352.30 66.26 353.17
  Q 65.64 354.15 66.34 355.08
  C 72.44 363.09 82.68 365.76 92.37 363.55
  C 98.42 362.16 103.60 358.16 105.55 352.16
  C 110.31 337.52 96.25 332.13 85.39 328.24
  C 81.14 326.72 81.58 322.23 85.77 321.26
  C 89.19 320.46 92.80 324.20 95.14 326.21
  A 1.56 1.55 -42.7 0 0 97.09 326.28
  L 105.44 320.05
  A 1.36 1.35 54.6 0 0 105.75 318.21
  C 96.63 304.68 66.65 306.27 67.73 326.76
  C 68.05 332.93 71.88 337.21 77.17 339.70
  Q 82.28 342.10 87.61 343.86
  Q 89.98 344.64 91.02 346.50
  Z
  M 499.94 336.83
  A 27.43 27.43 0.0 0 0 472.51 309.40
  A 27.43 27.43 0.0 0 0 445.08 336.83
  A 27.43 27.43 0.0 0 0 472.51 364.26
  A 27.43 27.43 0.0 0 0 499.94 336.83
  Z
  M 549.71 322.29
  C 553.57 318.98 558.26 323.64 561.30 326.13
  A 1.73 1.73 0.0 0 0 563.44 326.18
  L 571.29 320.27
  A 1.91 1.91 0.0 0 0 571.57 317.48
  C 564.60 309.62 553.88 307.53 544.19 311.06
  C 533.96 314.80 530.37 327.19 537.45 335.33
  C 541.01 339.41 547.99 341.82 553.18 343.60
  C 555.22 344.31 558.04 345.70 557.70 348.28
  Q 557.17 352.45 552.53 352.48
  C 548.72 352.51 545.64 349.42 542.99 346.94
  A 1.59 1.58 -41.2 0 0 541.00 346.81
  L 532.88 352.57
  A 1.87 1.87 0.0 0 0 532.57 355.34
  Q 543.58 367.55 559.84 363.14
  C 569.99 360.40 575.73 349.46 570.78 339.89
  C 567.65 333.83 557.16 330.36 551.18 328.05
  C 548.75 327.12 547.54 324.15 549.71 322.29
  Z
  M 155.34 324.66
  A 1.67 1.64 11.6 0 1 156.36 326.18
  L 156.43 361.46
  A 1.29 1.29 0.0 0 0 157.71 362.75
  L 170.27 362.82
  A 1.22 1.22 0.0 0 0 171.49 361.61
  Q 171.73 344.71 171.55 325.96
  A 1.42 1.42 0.0 0 1 172.94 324.53
  L 186.02 324.26
  A 1.02 1.02 0.0 0 0 187.02 323.24
  L 187.02 312.27
  A 0.99 0.98 7.7 0 0 186.29 311.32
  Q 184.82 310.92 183.33 310.92
  Q 163.91 310.91 142.54 310.96
  A 1.52 1.52 0.0 0 0 141.02 312.47
  L 140.95 322.79
  A 1.44 1.42 2.1 0 0 142.29 324.22
  Q 148.20 324.59 154.39 324.48
  Q 154.90 324.47 155.34 324.66
  Z
  M 306.78 312.32
  L 306.78 361.38
  A 1.39 1.39 0.0 0 0 308.17 362.77
  L 328.51 362.77
  A 26.27 24.49 0.0 0 0 354.78 338.28
  L 354.78 335.42
  A 26.27 24.49 0.0 0 0 328.51 310.93
  L 308.17 310.93
  A 1.39 1.39 0.0 0 0 306.78 312.32
  Z
  M 408.1875 312.5564
  A 1.62 1.62 0.0 0 0 406.5647 310.9392
  L 394.1647 310.9609
  A 1.62 1.62 0.0 0 0 392.5476 312.5837
  L 392.6325 361.2236
  A 1.62 1.62 0.0 0 0 394.2553 362.8408
  L 406.6553 362.8191
  A 1.62 1.62 0.0 0 0 408.2724 361.1963
  L 408.1875 312.5564
  Z
  M 249.20 349.81
  C 240.36 352.24 237.72 346.16 237.77 338.78
  Q 237.87 325.88 237.65 312.21
  A 1.25 1.24 89.5 0 0 236.41 310.98
  L 224.85 310.94
  Q 222.95 310.94 222.90 312.84
  Q 222.57 327.42 222.82 341.74
  C 223.12 359.41 234.22 365.60 250.53 363.94
  C 263.16 362.66 268.92 353.13 269.01 341.25
  Q 269.12 326.66 268.89 312.37
  A 1.42 1.41 89.4 0 0 267.47 310.97
  L 255.28 311.04
  A 0.91 0.90 5.4 0 0 254.39 311.77
  Q 254.08 313.45 254.08 315.50
  Q 254.09 329.26 253.89 341.51
  C 253.84 344.73 252.64 348.87 249.20 349.81
  Z"
/>
<path fill="#ffffff" d="
  M 188.16 110.77
  Q 188.22 102.58 179.98 100.85
  Q 177.25 100.28 171.17 100.46
  C 163.62 100.69 158.52 102.89 158.45 111.50
  Q 158.19 142.28 158.33 173.00
  C 158.34 175.48 158.73 179.63 155.93 180.61
  Q 155.33 180.82 152.10 180.88
  Q 137.21 181.17 122.24 180.78
  Q 118.08 180.66 118.08 176.50
  Q 118.09 144.00 118.03 114.00
  C 118.01 107.79 116.54 101.55 109.24 100.77
  C 103.19 100.13 89.05 98.93 88.41 108.49
  Q 88.14 112.45 88.12 116.06
  Q 87.87 162.99 88.02 214.96
  Q 88.02 217.08 87.56 219.34
  A 1.38 1.37 76.7 0 1 87.07 220.14
  Q 85.83 221.11 83.75 221.15
  Q 67.62 221.46 51.49 220.97
  Q 47.81 220.86 47.80 217.04
  Q 47.69 146.75 47.82 70.69
  Q 47.83 67.24 48.04 63.50
  C 48.21 60.36 51.92 60.23 54.30 60.23
  Q 119.06 60.30 182.89 60.27
  Q 185.29 60.27 187.30 61.27
  Q 187.76 61.49 187.87 61.99
  Q 188.43 64.48 188.42 67.15
  Q 188.38 74.34 188.60 81.13
  Q 188.72 85.06 190.24 88.32
  Q 195.73 100.13 209.12 100.42
  Q 215.60 100.56 222.79 100.57
  Q 224.72 100.57 226.68 101.06
  A 2.06 2.05 -88.2 0 1 228.20 102.68
  Q 228.62 104.96 228.62 107.47
  Q 228.57 159.54 228.82 213.45
  C 228.83 215.41 228.41 217.57 228.19 219.51
  A 1.41 1.40 -2.5 0 1 227.06 220.74
  Q 225.01 221.14 223.01 221.18
  Q 207.37 221.50 191.06 220.93
  A 2.36 2.36 0.0 0 1 188.86 219.18
  Q 188.33 217.16 188.34 215.10
  Q 188.62 176.63 188.22 139.36
  Q 188.06 123.84 188.16 110.77
  Z"
/>
<path fill="#ffffff" d="
  M 360.37 66.54
  Q 390.37 78.80 404.00 106.84
  C 419.69 139.11 412.79 176.93 386.98 202.21
  C 377.66 211.33 364.15 218.52 351.97 222.14
  Q 338.57 226.12 323.72 225.17
  C 308.28 224.18 295.14 219.23 282.22 211.10
  Q 268.10 202.23 258.61 187.27
  Q 242.51 161.87 246.44 131.62
  C 249.27 109.88 261.05 89.89 278.43 77.09
  Q 285.67 71.76 296.35 67.08
  C 316.55 58.24 340.36 58.36 360.37 66.54
  Z
  M 368.86 142.76
  A 39.84 39.84 0.0 0 0 329.02 102.92
  A 39.84 39.84 0.0 0 0 289.18 142.76
  A 39.84 39.84 0.0 0 0 329.02 182.60
  A 39.84 39.84 0.0 0 0 368.86 142.76
  Z"
/>
<path fill="#ffffff" d="
  M 585.04 221.95
  C 573.89 222.20 562.36 222.31 550.99 221.93
  A 2.34 2.33 80.9 0 1 548.87 220.39
  Q 548.36 218.98 548.33 217.55
  Q 547.97 204.06 547.97 191.43
  Q 547.96 182.44 539.10 182.15
  Q 528.45 181.79 518.09 182.12
  C 510.64 182.36 507.96 187.53 508.00 194.08
  Q 508.08 205.71 507.98 216.41
  Q 507.96 218.18 507.54 220.11
  A 1.81 1.81 0.0 0 1 506.09 221.50
  Q 503.62 221.94 500.98 221.71
  C 470.76 219.05 444.71 199.33 433.33 171.28
  C 422.70 145.08 427.14 114.14 444.74 92.15
  C 460.12 72.95 483.19 61.30 507.84 61.28
  Q 542.62 61.25 581.34 61.24
  Q 584.10 61.23 586.55 61.87
  A 1.56 1.53 77.7 0 1 587.36 62.40
  Q 588.15 63.41 588.18 64.58
  Q 588.63 81.45 588.23 98.50
  C 588.16 101.53 583.54 101.50 581.37 101.50
  Q 541.00 101.45 507.89 101.52
  Q 500.22 101.53 493.38 104.09
  C 475.46 110.78 464.84 130.68 468.62 149.13
  Q 471.72 164.21 483.66 173.57
  C 488.38 177.26 496.46 179.80 501.91 176.82
  C 506.81 174.14 508.06 169.86 508.03 164.61
  Q 507.98 155.45 507.99 146.92
  Q 507.99 144.32 509.10 142.54
  Q 509.37 142.11 509.87 142.04
  Q 511.91 141.77 513.87 141.76
  Q 544.45 141.67 579.11 141.65
  Q 582.66 141.65 586.16 142.04
  A 2.10 2.09 -0.7 0 1 588.01 143.84
  Q 588.38 146.61 588.39 149.31
  Q 588.48 179.82 588.40 213.11
  Q 588.39 217.21 587.88 220.45
  A 1.22 1.21 79.0 0 1 587.32 221.29
  Q 586.33 221.92 585.04 221.95
  Z"
/>
<circle fill="#f0323e" cx="329.02" cy="142.76" r="39.84"/>
<path fill="#ffffff" d="
  M 91.02 346.50
  Q 89.98 344.64 87.61 343.86
  Q 82.28 342.10 77.17 339.70
  C 71.88 337.21 68.05 332.93 67.73 326.76
  C 66.65 306.27 96.63 304.68 105.75 318.21
  A 1.36 1.35 54.6 0 1 105.44 320.05
  L 97.09 326.28
  A 1.56 1.55 -42.7 0 1 95.14 326.21
  C 92.80 324.20 89.19 320.46 85.77 321.26
  C 81.58 322.23 81.14 326.72 85.39 328.24
  C 96.25 332.13 110.31 337.52 105.55 352.16
  C 103.60 358.16 98.42 362.16 92.37 363.55
  C 82.68 365.76 72.44 363.09 66.34 355.08
  Q 65.64 354.15 66.26 353.17
  Q 66.81 352.30 67.67 351.71
  Q 71.08 349.34 74.54 346.92
  A 1.98 1.98 0.0 0 1 77.01 347.08
  C 80.22 350.00 83.91 353.33 88.50 352.08
  C 90.66 351.49 92.14 348.50 91.02 346.50
  Z"
/>
<path fill="#ffffff" d="
  M 499.94 336.83
  A 27.43 27.43 0.0 0 1 472.51 364.26
  A 27.43 27.43 0.0 0 1 445.08 336.83
  A 27.43 27.43 0.0 0 1 472.51 309.40
  A 27.43 27.43 0.0 0 1 499.94 336.83
  Z
  M 484.58 336.86
  A 12.07 12.07 0.0 0 0 472.51 324.79
  A 12.07 12.07 0.0 0 0 460.44 336.86
  A 12.07 12.07 0.0 0 0 472.51 348.93
  A 12.07 12.07 0.0 0 0 484.58 336.86
  Z"
/>
<path fill="#ffffff" d="
  M 549.71 322.29
  C 547.54 324.15 548.75 327.12 551.18 328.05
  C 557.16 330.36 567.65 333.83 570.78 339.89
  C 575.73 349.46 569.99 360.40 559.84 363.14
  Q 543.58 367.55 532.57 355.34
  A 1.87 1.87 0.0 0 1 532.88 352.57
  L 541.00 346.81
  A 1.59 1.58 -41.2 0 1 542.99 346.94
  C 545.64 349.42 548.72 352.51 552.53 352.48
  Q 557.17 352.45 557.70 348.28
  C 558.04 345.70 555.22 344.31 553.18 343.60
  C 547.99 341.82 541.01 339.41 537.45 335.33
  C 530.37 327.19 533.96 314.80 544.19 311.06
  C 553.88 307.53 564.60 309.62 571.57 317.48
  A 1.91 1.91 0.0 0 1 571.29 320.27
  L 563.44 326.18
  A 1.73 1.73 0.0 0 1 561.30 326.13
  C 558.26 323.64 553.57 318.98 549.71 322.29
  Z"
/>
<path fill="#ffffff" d="
  M 155.34 324.66
  Q 154.90 324.47 154.39 324.48
  Q 148.20 324.59 142.29 324.22
  A 1.44 1.42 2.1 0 1 140.95 322.79
  L 141.02 312.47
  A 1.52 1.52 0.0 0 1 142.54 310.96
  Q 163.91 310.91 183.33 310.92
  Q 184.82 310.92 186.29 311.32
  A 0.99 0.98 7.7 0 1 187.02 312.27
  L 187.02 323.24
  A 1.02 1.02 0.0 0 1 186.02 324.26
  L 172.94 324.53
  A 1.42 1.42 0.0 0 0 171.55 325.96
  Q 171.73 344.71 171.49 361.61
  A 1.22 1.22 0.0 0 1 170.27 362.82
  L 157.71 362.75
  A 1.29 1.29 0.0 0 1 156.43 361.46
  L 156.36 326.18
  A 1.67 1.64 11.6 0 0 155.34 324.66
  Z"
/>
<path fill="#ffffff" d="
  M 306.78 312.32
  A 1.39 1.39 0.0 0 1 308.17 310.93
  L 328.51 310.93
  A 26.27 24.49 -0.0 0 1 354.78 335.42
  L 354.78 338.28
  A 26.27 24.49 0.0 0 1 328.51 362.77
  L 308.17 362.77
  A 1.39 1.39 0.0 0 1 306.78 361.38
  L 306.78 312.32
  Z
  M 321.74 325.79
  L 321.66 347.85
  A 1.47 1.47 0.0 0 0 323.13 349.32
  L 327.27 349.34
  A 11.77 10.85 0.2 0 0 339.07 338.53
  L 339.09 335.23
  A 11.77 10.85 0.2 0 0 327.35 324.34
  L 323.21 324.32
  A 1.47 1.47 0.0 0 0 321.74 325.79
  Z"
/>
<rect fill="#ffffff" x="-7.82" y="-25.94" transform="translate(400.41,336.89) rotate(-0.1)" width="15.64" height="51.88" rx="1.62"/>
<path fill="#ffffff" d="
  M 237.77 338.78
  C 237.72 346.16 240.36 352.24 249.20 349.81
  C 252.64 348.87 253.84 344.73 253.89 341.51
  Q 254.09 329.26 254.08 315.50
  Q 254.08 313.45 254.39 311.77
  A 0.91 0.90 5.4 0 1 255.28 311.04
  L 267.47 310.97
  A 1.42 1.41 89.4 0 1 268.89 312.37
  Q 269.12 326.66 269.01 341.25
  C 268.92 353.13 263.16 362.66 250.53 363.94
  C 234.22 365.60 223.12 359.41 222.82 341.74
  Q 222.57 327.42 222.90 312.84
  Q 222.95 310.94 224.85 310.94
  L 236.41 310.98
  A 1.25 1.24 89.5 0 1 237.65 312.21
  Q 237.87 325.88 237.77 338.78
  Z"
/>
<path fill="#f0323e" d="
  M 321.74 325.79
  A 1.47 1.47 0.0 0 1 323.21 324.32
  L 327.35 324.34
  A 11.77 10.85 0.2 0 1 339.09 335.23
  L 339.07 338.53
  A 11.77 10.85 0.2 0 1 327.27 349.34
  L 323.13 349.32
  A 1.47 1.47 0.0 0 1 321.66 347.85
  L 321.74 325.79
  Z"
/>
<circle fill="#f0323e" cx="472.51" cy="336.86" r="12.07"/>
</svg>
