<?xml version="1.0" encoding="UTF-8" standalone="no"?>
<!DOCTYPE svg PUBLIC "-//W3C//DTD SVG 1.1//EN" "http://www.w3.org/Graphics/SVG/1.1/DTD/svg11.dtd">
<svg xmlns="http://www.w3.org/2000/svg" version="1.1" viewBox="0.00 0.00 645.00 284.00">
<g stroke-width="2.00" fill="none" stroke-linecap="butt">
<path stroke="#f8999f" vector-effect="non-scaling-stroke" d="
  M 123.94 179.52
  Q 124.42 179.63 124.90 179.66
  Q 137.11 180.31 154.24 179.88
  Q 155.69 179.85 156.04 178.44
  Q 156.91 174.91 156.91 171.29
  Q 156.94 145.14 157.05 114.27
  C 157.07 107.82 158.10 100.83 165.82 99.84
  Q 171.58 99.10 178.26 99.34
  C 183.01 99.51 187.65 101.79 188.90 106.71
  Q 189.78 110.15 189.80 115.25
  Q 189.99 168.31 189.83 216.05
  Q 189.82 219.91 193.68 219.93
  Q 208.55 219.99 222.06 220.02
  Q 223.79 220.03 225.37 219.45
  Q 225.83 219.28 226.01 218.82
  Q 226.43 217.71 226.89 216.59
  Q 227.34 215.49 227.36 214.29
  Q 227.69 184.36 227.20 156.41
  C 226.91 140.17 227.10 123.83 227.15 107.64
  Q 227.16 104.81 226.07 102.83
  Q 225.82 102.38 225.32 102.26
  Q 223.43 101.81 221.53 101.81
  Q 215.40 101.79 208.47 101.53
  Q 196.30 101.07 190.08 91.19
  Q 188.11 88.05 187.75 83.77
  C 187.18 76.96 187.88 70.57 186.79 63.99
  A 2.96 2.95 -4.5 0 0 183.88 61.51
  Q 148.89 61.51 111.25 61.52
  Q 108.78 61.52 106.01 61.50
  Q 81.40 61.29 56.25 61.54
  Q 53.32 61.57 51.16 62.03
  Q 49.28 62.43 49.69 64.30
  Q 49.86 65.06 49.78 65.83
  C 49.47 69.05 48.99 72.18 48.99 75.43
  Q 49.00 145.36 48.98 211.29
  C 48.98 213.45 49.25 215.70 49.62 217.83
  Q 49.98 219.96 52.33 219.98
  Q 69.59 220.07 83.79 219.97
  A 2.22 2.21 5.6 0 0 85.95 218.20
  Q 86.78 214.20 86.77 209.75
  Q 86.58 159.89 86.89 114.50
  C 86.93 108.97 86.47 105.02 91.38 101.48
  Q 93.49 99.96 96.38 99.76
  Q 102.89 99.30 108.63 99.48
  C 113.83 99.64 118.00 103.33 118.84 108.50
  Q 119.47 112.44 119.54 116.30
  Q 119.90 135.91 119.55 151.00
  Q 119.25 164.04 119.58 175.81
  Q 119.68 179.26 123.07 179.40
  Q 123.51 179.41 123.94 179.52"
/>
<path stroke="#f8999f" vector-effect="non-scaling-stroke" d="
  M 365.37 70.01
  Q 350.45 62.46 334.26 61.74
  Q 306.28 60.50 284.47 74.60
  Q 280.92 76.90 277.35 79.82
  C 273.92 82.63 270.02 85.30 267.22 88.79
  Q 260.87 96.70 256.65 104.21
  Q 251.66 113.12 249.62 121.27
  Q 243.81 144.53 250.49 166.92
  C 250.74 167.78 251.38 168.28 251.54 169.11
  Q 252.25 172.71 253.86 176.27
  Q 261.94 194.06 277.24 206.27
  C 281.26 209.48 285.79 211.74 290.10 214.34
  Q 294.78 217.16 299.27 218.53
  Q 299.43 218.58 299.55 218.69
  Q 299.68 218.81 299.80 218.93
  Q 300.17 219.29 300.67 219.43
  Q 312.20 222.81 315.49 223.28
  Q 340.51 226.89 363.20 216.80
  C 367.26 214.99 371.02 212.25 375.02 210.13
  Q 379.29 207.86 383.21 204.17
  Q 388.79 198.92 392.92 193.95
  Q 406.79 177.23 410.05 155.95
  Q 412.02 143.09 409.92 129.06
  Q 408.53 119.75 404.14 110.03
  C 395.95 91.88 383.48 79.17 365.37 70.01"
/>
<path stroke="#f8999f" vector-effect="non-scaling-stroke" d="
  M 443.58 186.89
  C 443.65 187.38 443.76 187.76 444.06 188.17
  Q 457.10 206.05 478.46 215.25
  C 481.90 216.73 485.30 217.44 488.77 218.50
  C 490.65 219.08 492.67 218.80 494.57 219.45
  Q 498.18 220.70 502.27 221.03
  Q 506.56 221.38 506.51 217.05
  Q 506.36 205.38 506.87 193.00
  Q 507.37 181.05 519.63 180.98
  Q 528.59 180.92 539.00 180.96
  Q 542.08 180.97 543.96 181.97
  C 548.25 184.25 548.84 187.05 549.31 191.50
  Q 549.57 194.01 549.52 196.41
  Q 549.29 206.93 550.03 218.93
  A 1.32 1.31 9.9 0 0 550.83 220.06
  Q 553.07 221.01 555.70 221.01
  Q 569.62 221.03 582.99 220.96
  C 587.70 220.94 586.96 215.17 586.97 211.98
  Q 587.11 179.64 586.87 147.27
  Q 586.86 145.95 586.70 144.57
  A 1.79 1.79 0.0 0 0 584.89 142.98
  C 579.41 143.08 573.93 142.45 568.67 142.40
  Q 545.34 142.19 526.75 142.76
  C 520.77 142.95 515.92 142.58 510.51 143.04
  Q 510.13 143.07 510.07 143.46
  Q 508.70 152.34 509.35 161.26
  C 509.81 167.52 508.97 173.25 503.75 177.08
  C 498.66 180.81 490.42 179.15 485.31 176.14
  Q 480.69 173.42 479.63 172.18
  Q 477.28 169.44 474.96 166.40
  Q 465.15 153.53 467.19 136.56
  C 468.77 123.37 474.76 114.86 484.90 107.00
  Q 486.97 105.40 489.40 104.42
  C 493.17 102.91 495.71 101.26 500.17 100.97
  Q 505.78 100.61 509.97 100.58
  Q 531.36 100.46 572.87 100.44
  Q 577.99 100.44 585.01 99.94
  A 1.97 1.97 0.0 0 0 586.84 98.10
  Q 587.58 87.25 587.32 76.18
  C 587.23 72.32 586.21 68.55 586.82 64.80
  A 1.69 1.69 0.0 0 0 585.28 62.84
  Q 577.16 62.20 569.36 62.21
  Q 540.82 62.23 510.97 62.30
  Q 502.18 62.31 495.34 63.49
  Q 469.13 68.02 449.94 87.81
  Q 446.70 91.16 443.64 95.42
  Q 439.98 100.53 438.08 104.36
  Q 435.15 110.28 432.64 117.49
  C 428.45 129.51 428.26 142.25 430.02 154.89
  C 430.64 159.31 431.95 163.93 433.48 168.08
  Q 436.10 175.18 441.79 184.97
  Q 442.22 185.72 443.01 186.11
  Q 443.50 186.35 443.58 186.89"
/>
<path stroke="#f8999f" vector-effect="non-scaling-stroke" d="
  M 367.07 158.52
  C 376.21 135.19 363.76 109.89 339.80 103.19
  C 334.89 101.81 329.60 101.68 324.60 102.06
  Q 315.33 102.77 306.52 108.66
  Q 299.92 113.07 296.98 116.81
  Q 288.27 127.90 287.88 141.99
  Q 287.59 152.74 292.22 161.20
  Q 297.35 170.54 306.72 176.87
  Q 311.67 180.21 316.42 181.64
  C 321.96 183.31 327.92 184.57 333.73 183.55
  C 340.68 182.34 348.72 179.94 354.23 175.30
  C 359.82 170.57 364.34 165.49 367.07 158.52"
/>
<path stroke="#f8999f" vector-effect="non-scaling-stroke" d="
  M 452.27 193.63
  A 0.28 0.28 0.0 0 0 452.05 194.04
  Q 452.38 194.61 452.91 195.00
  A 0.51 0.51 0.0 0 0 453.70 194.43
  Q 453.42 193.52 452.27 193.63"
/>
</g>
<path fill="#f0323e" d="
  M 0.00 0.00
  L 645.00 0.00
  L 645.00 284.00
  L 0.00 284.00
  L 0.00 0.00
  Z
  M 123.94 179.52
  Q 124.42 179.63 124.90 179.66
  Q 137.11 180.31 154.24 179.88
  Q 155.69 179.85 156.04 178.44
  Q 156.91 174.91 156.91 171.29
  Q 156.94 145.14 157.05 114.27
  C 157.07 107.82 158.10 100.83 165.82 99.84
  Q 171.58 99.10 178.26 99.34
  C 183.01 99.51 187.65 101.79 188.90 106.71
  Q 189.78 110.15 189.80 115.25
  Q 189.99 168.31 189.83 216.05
  Q 189.82 219.91 193.68 219.93
  Q 208.55 219.99 222.06 220.02
  Q 223.79 220.03 225.37 219.45
  Q 225.83 219.28 226.01 218.82
  Q 226.43 217.71 226.89 216.59
  Q 227.34 215.49 227.36 214.29
  Q 227.69 184.36 227.20 156.41
  C 226.91 140.17 227.10 123.83 227.15 107.64
  Q 227.16 104.81 226.07 102.83
  Q 225.82 102.38 225.32 102.26
  Q 223.43 101.81 221.53 101.81
  Q 215.40 101.79 208.47 101.53
  Q 196.30 101.07 190.08 91.19
  Q 188.11 88.05 187.75 83.77
  C 187.18 76.96 187.88 70.57 186.79 63.99
  A 2.96 2.95 -4.5 0 0 183.88 61.51
  Q 148.89 61.51 111.25 61.52
  Q 108.78 61.52 106.01 61.50
  Q 81.40 61.29 56.25 61.54
  Q 53.32 61.57 51.16 62.03
  Q 49.28 62.43 49.69 64.30
  Q 49.86 65.06 49.78 65.83
  C 49.47 69.05 48.99 72.18 48.99 75.43
  Q 49.00 145.36 48.98 211.29
  C 48.98 213.45 49.25 215.70 49.62 217.83
  Q 49.98 219.96 52.33 219.98
  Q 69.59 220.07 83.79 219.97
  A 2.22 2.21 5.6 0 0 85.95 218.20
  Q 86.78 214.20 86.77 209.75
  Q 86.58 159.89 86.89 114.50
  C 86.93 108.97 86.47 105.02 91.38 101.48
  Q 93.49 99.96 96.38 99.76
  Q 102.89 99.30 108.63 99.48
  C 113.83 99.64 118.00 103.33 118.84 108.50
  Q 119.47 112.44 119.54 116.30
  Q 119.90 135.91 119.55 151.00
  Q 119.25 164.04 119.58 175.81
  Q 119.68 179.26 123.07 179.40
  Q 123.51 179.41 123.94 179.52
  Z
  M 365.37 70.01
  Q 350.45 62.46 334.26 61.74
  Q 306.28 60.50 284.47 74.60
  Q 280.92 76.90 277.35 79.82
  C 273.92 82.63 270.02 85.30 267.22 88.79
  Q 260.87 96.70 256.65 104.21
  Q 251.66 113.12 249.62 121.27
  Q 243.81 144.53 250.49 166.92
  C 250.74 167.78 251.38 168.28 251.54 169.11
  Q 252.25 172.71 253.86 176.27
  Q 261.94 194.06 277.24 206.27
  C 281.26 209.48 285.79 211.74 290.10 214.34
  Q 294.78 217.16 299.27 218.53
  Q 299.43 218.58 299.55 218.69
  Q 299.68 218.81 299.80 218.93
  Q 300.17 219.29 300.67 219.43
  Q 312.20 222.81 315.49 223.28
  Q 340.51 226.89 363.20 216.80
  C 367.26 214.99 371.02 212.25 375.02 210.13
  Q 379.29 207.86 383.21 204.17
  Q 388.79 198.92 392.92 193.95
  Q 406.79 177.23 410.05 155.95
  Q 412.02 143.09 409.92 129.06
  Q 408.53 119.75 404.14 110.03
  C 395.95 91.88 383.48 79.17 365.37 70.01
  Z
  M 443.58 186.89
  C 443.65 187.38 443.76 187.76 444.06 188.17
  Q 457.10 206.05 478.46 215.25
  C 481.90 216.73 485.30 217.44 488.77 218.50
  C 490.65 219.08 492.67 218.80 494.57 219.45
  Q 498.18 220.70 502.27 221.03
  Q 506.56 221.38 506.51 217.05
  Q 506.36 205.38 506.87 193.00
  Q 507.37 181.05 519.63 180.98
  Q 528.59 180.92 539.00 180.96
  Q 542.08 180.97 543.96 181.97
  C 548.25 184.25 548.84 187.05 549.31 191.50
  Q 549.57 194.01 549.52 196.41
  Q 549.29 206.93 550.03 218.93
  A 1.32 1.31 9.9 0 0 550.83 220.06
  Q 553.07 221.01 555.70 221.01
  Q 569.62 221.03 582.99 220.96
  C 587.70 220.94 586.96 215.17 586.97 211.98
  Q 587.11 179.64 586.87 147.27
  Q 586.86 145.95 586.70 144.57
  A 1.79 1.79 0.0 0 0 584.89 142.98
  C 579.41 143.08 573.93 142.45 568.67 142.40
  Q 545.34 142.19 526.75 142.76
  C 520.77 142.95 515.92 142.58 510.51 143.04
  Q 510.13 143.07 510.07 143.46
  Q 508.70 152.34 509.35 161.26
  C 509.81 167.52 508.97 173.25 503.75 177.08
  C 498.66 180.81 490.42 179.15 485.31 176.14
  Q 480.69 173.42 479.63 172.18
  Q 477.28 169.44 474.96 166.40
  Q 465.15 153.53 467.19 136.56
  C 468.77 123.37 474.76 114.86 484.90 107.00
  Q 486.97 105.40 489.40 104.42
  C 493.17 102.91 495.71 101.26 500.17 100.97
  Q 505.78 100.61 509.97 100.58
  Q 531.36 100.46 572.87 100.44
  Q 577.99 100.44 585.01 99.94
  A 1.97 1.97 0.0 0 0 586.84 98.10
  Q 587.58 87.25 587.32 76.18
  C 587.23 72.32 586.21 68.55 586.82 64.80
  A 1.69 1.69 0.0 0 0 585.28 62.84
  Q 577.16 62.20 569.36 62.21
  Q 540.82 62.23 510.97 62.30
  Q 502.18 62.31 495.34 63.49
  Q 469.13 68.02 449.94 87.81
  Q 446.70 91.16 443.64 95.42
  Q 439.98 100.53 438.08 104.36
  Q 435.15 110.28 432.64 117.49
  C 428.45 129.51 428.26 142.25 430.02 154.89
  C 430.64 159.31 431.95 163.93 433.48 168.08
  Q 436.10 175.18 441.79 184.97
  Q 442.22 185.72 443.01 186.11
  Q 443.50 186.35 443.58 186.89
  Z"
/>
<path fill="#ffffff" d="
  M 123.07 179.40
  Q 119.68 179.26 119.58 175.81
  Q 119.25 164.04 119.55 151.00
  Q 119.90 135.91 119.54 116.30
  Q 119.47 112.44 118.84 108.50
  C 118.00 103.33 113.83 99.64 108.63 99.48
  Q 102.89 99.30 96.38 99.76
  Q 93.49 99.96 91.38 101.48
  C 86.47 105.02 86.93 108.97 86.89 114.50
  Q 86.58 159.89 86.77 209.75
  Q 86.78 214.20 85.95 218.20
  A 2.22 2.21 5.6 0 1 83.79 219.97
  Q 69.59 220.07 52.33 219.98
  Q 49.98 219.96 49.62 217.83
  C 49.25 215.70 48.98 213.45 48.98 211.29
  Q 49.00 145.36 48.99 75.43
  C 48.99 72.18 49.47 69.05 49.78 65.83
  Q 49.86 65.06 49.69 64.30
  Q 49.28 62.43 51.16 62.03
  Q 53.32 61.57 56.25 61.54
  Q 81.40 61.29 106.01 61.50
  Q 108.78 61.52 111.25 61.52
  Q 148.89 61.51 183.88 61.51
  A 2.96 2.95 -4.5 0 1 186.79 63.99
  C 187.88 70.57 187.18 76.96 187.75 83.77
  Q 188.11 88.05 190.08 91.19
  Q 196.30 101.07 208.47 101.53
  Q 215.40 101.79 221.53 101.81
  Q 223.43 101.81 225.32 102.26
  Q 225.82 102.38 226.07 102.83
  Q 227.16 104.81 227.15 107.64
  C 227.10 123.83 226.91 140.17 227.20 156.41
  Q 227.69 184.36 227.36 214.29
  Q 227.34 215.49 226.89 216.59
  Q 226.43 217.71 226.01 218.82
  Q 225.83 219.28 225.37 219.45
  Q 223.79 220.03 222.06 220.02
  Q 208.55 219.99 193.68 219.93
  Q 189.82 219.91 189.83 216.05
  Q 189.99 168.31 189.80 115.25
  Q 189.78 110.15 188.90 106.71
  C 187.65 101.79 183.01 99.51 178.26 99.34
  Q 171.58 99.10 165.82 99.84
  C 158.10 100.83 157.07 107.82 157.05 114.27
  Q 156.94 145.14 156.91 171.29
  Q 156.91 174.91 156.04 178.44
  Q 155.69 179.85 154.24 179.88
  Q 137.11 180.31 124.90 179.66
  Q 124.42 179.63 123.94 179.52
  Q 123.51 179.41 123.07 179.40
  Z"
/>
<path fill="#ffffff" d="
  M 365.37 70.01
  C 383.48 79.17 395.95 91.88 404.14 110.03
  Q 408.53 119.75 409.92 129.06
  Q 412.02 143.09 410.05 155.95
  Q 406.79 177.23 392.92 193.95
  Q 388.79 198.92 383.21 204.17
  Q 379.29 207.86 375.02 210.13
  C 371.02 212.25 367.26 214.99 363.20 216.80
  Q 340.51 226.89 315.49 223.28
  Q 312.20 222.81 300.67 219.43
  Q 300.17 219.29 299.80 218.93
  Q 299.68 218.81 299.55 218.69
  Q 299.43 218.58 299.27 218.53
  Q 294.78 217.16 290.10 214.34
  C 285.79 211.74 281.26 209.48 277.24 206.27
  Q 261.94 194.06 253.86 176.27
  Q 252.25 172.71 251.54 169.11
  C 251.38 168.28 250.74 167.78 250.49 166.92
  Q 243.81 144.53 249.62 121.27
  Q 251.66 113.12 256.65 104.21
  Q 260.87 96.70 267.22 88.79
  C 270.02 85.30 273.92 82.63 277.35 79.82
  Q 280.92 76.90 284.47 74.60
  Q 306.28 60.50 334.26 61.74
  Q 350.45 62.46 365.37 70.01
  Z
  M 367.07 158.52
  C 376.21 135.19 363.76 109.89 339.80 103.19
  C 334.89 101.81 329.60 101.68 324.60 102.06
  Q 315.33 102.77 306.52 108.66
  Q 299.92 113.07 296.98 116.81
  Q 288.27 127.90 287.88 141.99
  Q 287.59 152.74 292.22 161.20
  Q 297.35 170.54 306.72 176.87
  Q 311.67 180.21 316.42 181.64
  C 321.96 183.31 327.92 184.57 333.73 183.55
  C 340.68 182.34 348.72 179.94 354.23 175.30
  C 359.82 170.57 364.34 165.49 367.07 158.52
  Z"
/>
<path fill="#ffffff" d="
  M 443.01 186.11
  Q 442.22 185.72 441.79 184.97
  Q 436.10 175.18 433.48 168.08
  C 431.95 163.93 430.64 159.31 430.02 154.89
  C 428.26 142.25 428.45 129.51 432.64 117.49
  Q 435.15 110.28 438.08 104.36
  Q 439.98 100.53 443.64 95.42
  Q 446.70 91.16 449.94 87.81
  Q 469.13 68.02 495.34 63.49
  Q 502.18 62.31 510.97 62.30
  Q 540.82 62.23 569.36 62.21
  Q 577.16 62.20 585.28 62.84
  A 1.69 1.69 0.0 0 1 586.82 64.80
  C 586.21 68.55 587.23 72.32 587.32 76.18
  Q 587.58 87.25 586.84 98.10
  A 1.97 1.97 0.0 0 1 585.01 99.94
  Q 577.99 100.44 572.87 100.44
  Q 531.36 100.46 509.97 100.58
  Q 505.78 100.61 500.17 100.97
  C 495.71 101.26 493.17 102.91 489.40 104.42
  Q 486.97 105.40 484.90 107.00
  C 474.76 114.86 468.77 123.37 467.19 136.56
  Q 465.15 153.53 474.96 166.40
  Q 477.28 169.44 479.63 172.18
  Q 480.69 173.42 485.31 176.14
  C 490.42 179.15 498.66 180.81 503.75 177.08
  C 508.97 173.25 509.81 167.52 509.35 161.26
  Q 508.70 152.34 510.07 143.46
  Q 510.13 143.07 510.51 143.04
  C 515.92 142.58 520.77 142.95 526.75 142.76
  Q 545.34 142.19 568.67 142.40
  C 573.93 142.45 579.41 143.08 584.89 142.98
  A 1.79 1.79 0.0 0 1 586.70 144.57
  Q 586.86 145.95 586.87 147.27
  Q 587.11 179.64 586.97 211.98
  C 586.96 215.17 587.70 220.94 582.99 220.96
  Q 569.62 221.03 555.70 221.01
  Q 553.07 221.01 550.83 220.06
  A 1.32 1.31 9.9 0 1 550.03 218.93
  Q 549.29 206.93 549.52 196.41
  Q 549.57 194.01 549.31 191.50
  C 548.84 187.05 548.25 184.25 543.96 181.97
  Q 542.08 180.97 539.00 180.96
  Q 528.59 180.92 519.63 180.98
  Q 507.37 181.05 506.87 193.00
  Q 506.36 205.38 506.51 217.05
  Q 506.56 221.38 502.27 221.03
  Q 498.18 220.70 494.57 219.45
  C 492.67 218.80 490.65 219.08 488.77 218.50
  C 485.30 217.44 481.90 216.73 478.46 215.25
  Q 457.10 206.05 444.06 188.17
  C 443.76 187.76 443.65 187.38 443.58 186.89
  Q 443.50 186.35 443.01 186.11
  Z
  M 452.27 193.63
  A 0.28 0.28 0.0 0 0 452.05 194.04
  Q 452.38 194.61 452.91 195.00
  A 0.51 0.51 0.0 0 0 453.70 194.43
  Q 453.42 193.52 452.27 193.63
  Z"
/>
<path fill="#f0323e" d="
  M 367.07 158.52
  C 364.34 165.49 359.82 170.57 354.23 175.30
  C 348.72 179.94 340.68 182.34 333.73 183.55
  C 327.92 184.57 321.96 183.31 316.42 181.64
  Q 311.67 180.21 306.72 176.87
  Q 297.35 170.54 292.22 161.20
  Q 287.59 152.74 287.88 141.99
  Q 288.27 127.90 296.98 116.81
  Q 299.92 113.07 306.52 108.66
  Q 315.33 102.77 324.60 102.06
  C 329.60 101.68 334.89 101.81 339.80 103.19
  C 363.76 109.89 376.21 135.19 367.07 158.52
  Z"
/>
<path fill="#f0323e" d="
  M 452.27 193.63
  Q 453.42 193.52 453.70 194.43
  A 0.51 0.51 0.0 0 1 452.91 195.00
  Q 452.38 194.61 452.05 194.04
  A 0.28 0.28 0.0 0 1 452.27 193.63
  Z"
/>
</svg>
