<?xml version="1.0" encoding="UTF-8" standalone="no"?>
<!DOCTYPE svg PUBLIC "-//W3C//DTD SVG 1.1//EN" "http://www.w3.org/Graphics/SVG/1.1/DTD/svg11.dtd">
<svg xmlns="http://www.w3.org/2000/svg" version="1.1" viewBox="0.00 0.00 645.00 284.00">
<path fill="#ffffff" d="
  M 123.02 179.33
  Q 122.98 179.46 122.92 179.57
  Q 122.62 180.11 122.28 179.61
  Q 121.70 178.75 120.68 178.51
  Q 120.07 178.37 120.07 177.75
  C 120.06 176.57 119.41 175.93 119.42 174.78
  Q 119.54 164.35 119.38 153.25
  C 119.36 152.43 119.66 151.70 119.67 150.81
  Q 120.04 119.59 119.05 109.80
  Q 118.13 100.74 109.32 99.58
  Q 105.35 99.06 96.74 99.68
  Q 93.76 99.90 91.59 101.38
  C 88.52 103.48 86.99 105.92 86.89 109.67
  Q 86.75 114.58 86.81 119.25
  Q 86.82 119.99 86.81 120.75
  Q 86.70 167.09 86.75 215.01
  Q 86.75 215.55 86.36 215.92
  Q 86.25 216.02 86.19 216.15
  Q 85.98 216.57 86.05 217.04
  C 86.29 218.55 85.00 219.99 83.45 219.99
  Q 67.19 220.00 52.27 219.97
  C 49.73 219.96 49.47 217.53 49.18 215.59
  Q 49.01 214.46 49.01 213.40
  Q 48.99 143.33 49.01 73.26
  Q 49.01 70.96 49.51 68.79
  Q 50.05 66.46 49.75 64.26
  A 2.30 2.30 0.0 0 1 52.01 61.64
  Q 80.05 61.38 107.63 61.55
  Q 108.19 61.55 108.75 61.55
  Q 141.66 61.52 180.00 61.52
  Q 181.92 61.52 182.80 61.33
  Q 183.32 61.21 183.73 61.54
  Q 184.27 61.96 184.94 62.00
  A 1.88 1.87 -3.5 0 1 186.67 63.52
  C 187.23 66.51 187.57 69.63 187.40 72.72
  Q 187.09 78.28 187.97 85.26
  Q 188.48 89.24 191.01 92.64
  Q 197.69 101.61 209.66 101.65
  Q 217.67 101.67 224.95 102.05
  Q 225.69 102.09 225.80 102.82
  Q 225.92 103.60 226.54 104.07
  A 1.71 1.69 19.2 0 1 227.21 105.44
  Q 226.68 137.33 227.47 167.27
  Q 227.51 168.68 227.50 169.98
  Q 227.39 192.92 227.36 215.02
  Q 227.36 215.53 227.06 215.94
  Q 226.56 216.64 226.47 217.47
  Q 226.20 219.73 223.77 219.85
  Q 214.60 220.28 204.78 219.85
  C 201.03 219.68 196.75 220.36 192.78 219.75
  C 189.59 219.26 189.89 216.85 189.89 214.49
  Q 189.99 162.16 189.87 112.46
  Q 189.86 110.16 189.23 108.11
  Q 188.50 105.75 187.76 103.55
  Q 187.62 103.12 187.22 102.92
  C 185.31 101.92 183.93 100.18 181.75 99.77
  Q 178.65 99.19 174.80 99.25
  C 168.37 99.36 160.16 98.81 158.08 106.23
  Q 157.04 109.92 157.02 115.99
  Q 156.95 145.95 156.92 175.36
  Q 156.92 175.69 156.67 175.91
  L 156.45 176.12
  Q 156.16 176.39 156.18 176.78
  Q 156.25 177.92 155.90 178.97
  Q 155.76 179.42 155.30 179.55
  Q 154.05 179.91 153.02 179.92
  Q 139.46 180.03 124.96 179.89
  Q 124.40 179.88 124.04 179.46
  Q 123.92 179.33 123.82 179.18
  Q 123.29 178.39 123.02 179.33
  Z"
/>
<path fill="#ffffff" d="
  M 363.66 69.18
  Q 383.36 78.37 395.31 94.68
  Q 403.40 105.72 407.51 118.79
  Q 410.43 128.09 410.94 138.44
  Q 412.79 176.11 384.79 202.77
  C 380.55 206.80 376.14 209.58 371.26 212.49
  Q 347.76 226.54 319.49 223.88
  Q 313.19 223.28 301.29 219.58
  Q 300.07 219.20 299.00 218.55
  C 298.07 217.98 296.80 217.87 295.81 217.37
  Q 284.56 211.68 278.15 206.92
  Q 262.26 195.13 253.36 175.19
  Q 252.40 173.04 251.79 170.80
  Q 251.17 168.48 250.39 166.16
  Q 247.66 158.10 247.16 149.11
  C 246.44 136.12 247.64 123.98 252.75 112.09
  Q 257.53 100.92 265.84 90.52
  Q 268.84 86.76 272.66 83.54
  Q 277.79 79.23 280.25 77.45
  Q 298.93 63.91 322.13 61.85
  Q 326.32 61.48 334.31 61.79
  Q 340.91 62.06 346.31 63.19
  Q 354.55 64.92 363.66 69.18
  Z
  M 313.59 180.67
  C 316.71 182.10 320.32 182.57 323.65 183.38
  C 330.62 185.05 338.51 182.96 345.27 180.42
  Q 350.93 178.30 355.85 173.95
  Q 370.94 160.64 369.92 140.58
  C 368.81 118.68 351.13 101.88 329.01 101.81
  Q 314.38 101.77 302.49 111.56
  C 299.75 113.81 296.98 116.14 295.13 119.24
  C 292.42 123.79 289.87 128.34 288.85 133.64
  C 287.04 143.12 287.48 152.93 292.51 161.71
  Q 299.72 174.30 313.59 180.67
  Z"
/>
<path fill="#ffffff" d="
  M 443.71 186.07
  Q 442.65 186.28 442.07 185.36
  C 435.81 175.38 431.00 164.33 429.78 153.37
  Q 429.41 150.04 429.22 147.02
  Q 428.36 133.56 430.70 123.79
  C 432.74 115.32 436.61 105.82 441.48 98.58
  Q 460.32 70.54 494.35 63.58
  C 499.79 62.46 507.14 62.30 513.84 62.29
  Q 545.76 62.21 580.78 62.25
  Q 581.31 62.25 581.76 62.54
  C 583.21 63.48 584.09 62.41 585.41 62.95
  Q 587.53 63.83 586.65 66.42
  C 586.03 68.22 586.92 69.32 587.01 71.04
  Q 587.36 77.73 587.42 84.51
  C 587.46 88.82 586.81 93.03 587.01 97.34
  A 2.56 2.56 0.0 0 1 584.08 100.00
  Q 582.71 99.80 581.35 100.27
  Q 580.78 100.47 580.24 100.21
  Q 579.45 99.82 578.58 100.08
  Q 576.24 100.76 574.12 100.61
  Q 573.00 100.54 571.86 100.53
  Q 542.68 100.41 513.78 100.41
  Q 509.82 100.41 506.25 100.68
  Q 502.51 100.96 498.77 101.09
  A 10.33 10.32 31.5 0 0 494.73 102.06
  Q 491.99 103.35 489.10 104.56
  C 485.55 106.04 482.82 108.56 480.03 111.11
  Q 470.23 120.06 467.79 132.53
  Q 463.35 155.26 479.19 171.37
  Q 479.41 171.59 479.50 171.86
  Q 479.55 172.00 479.52 172.15
  Q 479.42 172.53 479.79 172.63
  Q 480.77 172.91 481.54 173.56
  Q 487.66 178.72 495.15 179.19
  Q 500.47 179.53 503.83 177.04
  C 509.66 172.71 509.80 166.27 509.27 159.73
  Q 508.59 151.44 510.13 143.53
  Q 510.23 142.99 510.79 142.98
  C 513.08 142.95 514.99 142.73 517.41 142.88
  Q 521.05 143.10 526.50 142.72
  Q 533.76 142.21 568.82 142.45
  C 574.03 142.49 579.20 143.21 584.46 142.96
  A 2.34 2.34 0.0 0 1 586.91 145.29
  Q 587.08 177.15 586.95 216.54
  Q 586.94 221.05 582.54 221.04
  Q 568.99 221.00 555.50 220.99
  Q 552.91 220.99 550.59 220.02
  Q 550.19 219.86 550.16 219.44
  Q 549.25 209.65 549.57 202.27
  Q 549.75 198.01 549.39 193.77
  Q 549.36 193.38 549.52 193.03
  Q 549.66 192.70 549.55 192.37
  Q 548.98 190.76 549.01 188.97
  C 549.07 185.90 546.64 183.39 544.05 182.03
  Q 541.77 180.82 538.48 180.93
  Q 530.81 181.19 522.72 180.83
  C 517.52 180.59 510.77 181.48 508.38 186.44
  Q 507.00 189.31 506.87 193.13
  Q 506.40 206.14 506.51 216.77
  Q 506.56 221.73 501.61 220.95
  Q 497.50 220.31 493.55 219.24
  C 492.15 218.86 490.35 219.03 489.23 218.73
  Q 461.26 211.38 444.11 188.25
  Q 443.72 187.72 443.69 187.18
  Q 443.67 186.78 443.93 186.42
  Q 444.28 185.95 443.71 186.07
  Z
  M 452.20 193.99
  Q 452.38 194.55 452.82 194.94
  Q 453.31 195.38 453.54 194.76
  Q 453.77 194.14 453.18 193.84
  Q 452.78 193.63 452.34 193.74
  Q 452.14 193.79 452.20 193.99
  Z"
/>
</svg>
